<?xml version="1.0" ?><svg id="Layer_1" style="enable-background:new 0 0 73 73;" version="1.1" viewBox="0 0 73 73" xml:space="preserve" xmlns="http://www.w3.org/2000/svg" xmlns:xlink="http://www.w3.org/1999/xlink"><title/><g id="Layer_2"><g id="Layer_3"><path fill="#2ecc71" d="M67.1,39.9l-2.9,0.6c1.4,6.5-0.6,13.3-5.3,18l-0.3,0.3c-7.6,7.6-19.9,7.6-27.5,0L14,41.7c-7.5-7.7-7.3-20,0.4-27.5    c7.5-7.4,19.6-7.4,27.1,0l8.8,8.9c4.3,5,3.7,12.6-1.3,16.9c-4.5,3.9-11.1,3.9-15.6,0l-3.9-3.9c-2.8-2.8-2.8-7.4,0-10.3    c1.4-1.3,3.2-2.1,5.1-2.1c1.8,0,3.6,0.7,5,2l4.9,4.9l2.1-2.1l-4.9-4.9c-1.9-1.8-4.5-2.9-7.1-2.8c-2.7,0-5.3,1.1-7.2,3    c-4,4-4,10.5,0,14.5l4,3.9c6.2,5.5,15.7,4.9,21.2-1.3c5-5.7,5-14.2,0-19.9l-8.9-8.9C35,3.1,20.8,2.9,11.9,11.5s-9.2,22.8-0.6,31.7    c0.2,0.2,0.4,0.4,0.6,0.6l17.1,17.1c8.8,8.8,23,8.8,31.7,0c0,0,0,0,0,0l0.3-0.3C66.5,55.2,68.8,47.4,67.1,39.9z"/></g></g></svg>